# xmcd
#
# Track frame offsets:
#	150
#	12731
#	24318
#	35366
#	47631
#	59894
#	72494
#	83619
#	94850
#	106663
#	118528
#	130668
#	141916
#	152831
#	164111
#	177356
#	189151
#	201036
#	215256
#	227882
#	239373
#	251354
#	262761
#	274920
#	287134
#	294354
#	303381
#	310160
#	318552
#	326448
#	333721
#	341711
#	347054
#	353559
#	360903
#
# Disc length: 4891 seconds
#
# Revision: 0
# Processed by: cddbd v1.5.1PL2 Copyright (c) Steve Scherf et al.
# Submitted via: audiograbber 1.83.01
#
DISCID=0d131923
DTITLE=Jim Reeves - Welcome to My World   Disc 02
DYEAR=1900
DGENRE=Country
TTITLE0=I'll Follow You
TTITLE1=Penny Candy
TTITLE2=Where Does A Broken Heart Go
TTITLE3=The Wilder Your Heart Beats [False Start]
TTITLE4=The Wilder Your Heart Beats 
TTITLE5=Drinking Tequila
TTITLE6=Red Eyed And Rowdy
TTITLE7=Tahiti
TTITLE8=Give Me One More Kiss
TTITLE9=Are You The One (& Alvadean Coker)
TTITLE10=How Many
TTITLE11=Hillbilly Waltz
TTITLE12=Let Me Remember (Things I Can't Forget)
TTITLE13=Spanish Violins
TTITLE14=A Woman's Love
TTITLE15=Whispering Willow
TTITLE16=If You Love Me Don't Leave Me
TTITLE17=Each Beat Of My Heart
TTITLE18=Heart Breaking Baby
TTITLE19=Let Me Love You Just A Little (Alternate)
TTITLE20=Then I'll Stop Loving You (Alternate)
TTITLE21=Hillbilly Waltz (Alternate)
TTITLE22=Mexican Joe (Alternate)
TTITLE23=The Marriage Of Mexican Joe (Carolyn Bradshaw)
TTITLE24=You're The Sweetest Thing
TTITLE25=I've Forgotten You
TTITLE26=Sand In My Shoes
TTITLE27=There's Someone Who Loves You
TTITLE28=Heart Breaking Baby
TTITLE29=Did You Darling
TTITLE30=Standby
TTITLE31=I'll Always Love You
TTITLE32=Never Take No For An Answer
TTITLE33=Please Leave My Darling Alone
TTITLE34=You're Slipping Away From Me
EXTD=
EXTT0=
EXTT1=
EXTT2=
EXTT3=
EXTT4=
EXTT5=
EXTT6=
EXTT7=
EXTT8=
EXTT9=
EXTT10=
EXTT11=
EXTT12=
EXTT13=
EXTT14=
EXTT15=
EXTT16=
EXTT17=
EXTT18=
EXTT19=
EXTT20=
EXTT21=
EXTT22=
EXTT23=
EXTT24=
EXTT25=
EXTT26=
EXTT27=
EXTT28=
EXTT29=
EXTT30=
EXTT31=
EXTT32=
EXTT33=
EXTT34=
PLAYORDER=
